# xmcd CD database file
# Copyright (C) 1993-1996 Ti Kan
#
# Track frame offsets:
#  150
#  24240
#  39335
#  52242
#  64208
#  80325
#  97896
#  108406
#  120138
#  134916
#  153556
#  166027
#
# Disc length: 2389 seconds
#
# Revision: 2
# Processed by: cddbd v1.5.2PL0 Copyright (c) Steve Scherf et al.
# Submitted via: Advanced CD Ripper Pro 2.0
#
DISCID=9309530c
DTITLE=Joey and Rory - His and Hers
DYEAR=2012
DGENRE=Country
TTITLE0=Josephine
TTITLE1=Waiting for Someone
TTITLE2=Someday When I Grow Up
TTITLE3=Let's Pretend We Never Met
TTITLE4=A Bible and a Belt
TTITLE5=When I'm Gone
TTITLE6=Your Man Love You Honey
TTITLE7=Love Your Man
TTITLE8=Cryin' Smile
TTITLE9=He's a Cowboy
TTITLE10=Teaching Me How to Love You
TTITLE11=His and Hers
EXTD=
EXTT0=
EXTT1=
EXTT2=
EXTT3=
EXTT4=
EXTT5=
EXTT6=
EXTT7=
EXTT8=
EXTT9=
EXTT10=
EXTT11=
PLAYORDER=
